HIERARCHY
ROOT Hips
{
	OFFSET -14.64140 90.27770 -84.91600
	CHANNELS 6 Xposition Yposition Zposition Zrotation Xrotation Yrotation
	JOINT Spine
	{
		OFFSET 0.00000 13.20850 -1.60436
		CHANNELS 3 Zrotation Xrotation Yrotation
		JOINT Spine1
		{
			OFFSET 0.00000 8.61716 0.00000
			CHANNELS 3 Zrotation Xrotation Yrotation
			JOINT Spine2
			{
				OFFSET 0.00000 8.61717 0.00000
				CHANNELS 3 Zrotation Xrotation Yrotation
				JOINT Spine3
				{
					OFFSET 0.00000 8.61717 0.00000
					CHANNELS 3 Zrotation Xrotation Yrotation
					JOINT Neck
					{
						OFFSET 0.00000 11.07920 1.10792
						CHANNELS 3 Zrotation Xrotation Yrotation
						JOINT Neck1
						{
							OFFSET 0.00000 7.08032 0.00000
							CHANNELS 3 Zrotation Xrotation Yrotation
							JOINT Head
							{
								OFFSET 0.00000 7.08031 0.00000
								CHANNELS 3 Zrotation Xrotation Yrotation
								End site
								{
									OFFSET 0.00000 0.00000 0.00000
								}
							}
						}
					}
					JOINT RightShoulder
					{
						OFFSET -0.01000 7.91373 5.19711
						CHANNELS 3 Zrotation Xrotation Yrotation
						JOINT RightArm
						{
							OFFSET -18.41580 0.00000 0.00000
							CHANNELS 3 Zrotation Xrotation Yrotation
							JOINT RightForeArm
							{
								OFFSET -29.11090 0.00000 0.00000
								CHANNELS 3 Zrotation Xrotation Yrotation
								JOINT RightHand
								{
									OFFSET -24.65040 0.00000 0.00000
									CHANNELS 3 Zrotation Xrotation Yrotation
									JOINT RightHandThumb1
									{
										OFFSET -5.35114 -0.85590 3.97906
										CHANNELS 3 Zrotation Xrotation Yrotation
										JOINT RightHandThumb2
										{
											OFFSET -4.52789 0.00000 0.00000
											CHANNELS 3 Zrotation Xrotation Yrotation
											JOINT RightHandThumb3
											{
												OFFSET -2.46976 0.00000 0.00000
												CHANNELS 3 Zrotation Xrotation Yrotation
												End site
												{
													OFFSET 0.00000 0.00000 0.00000
												}
											}
										}
									}
									JOINT RightHandIndex1
									{
										OFFSET -14.26970 0.00000 2.88139
										CHANNELS 3 Zrotation Xrotation Yrotation
										JOINT RightHandIndex2
										{
											OFFSET -5.48836 0.00000 0.00000
											CHANNELS 3 Zrotation Xrotation Yrotation
											JOINT RightHandIndex3
											{
												OFFSET -3.01859 0.00000 0.00000
												CHANNELS 3 Zrotation Xrotation Yrotation
												End site
												{
													OFFSET 0.00000 0.00000 0.00000
												}
											}
										}
									}
									JOINT RightHandMiddle1
									{
										OFFSET -14.26970 0.00000 -0.09147
										CHANNELS 3 Zrotation Xrotation Yrotation
										JOINT RightHandMiddle2
										{
											OFFSET -6.17441 0.00000 0.00000
											CHANNELS 3 Zrotation Xrotation Yrotation
											JOINT RightHandMiddle3
											{
												OFFSET -3.56743 0.00000 0.00000
												CHANNELS 3 Zrotation Xrotation Yrotation
												End site
												{
													OFFSET 0.00000 0.00000 0.00000
												}
											}
										}
									}
									JOINT RightHandRing1
									{
										OFFSET -12.69180 0.00000 -3.06433
										CHANNELS 3 Zrotation Xrotation Yrotation
										JOINT RightHandRing2
										{
											OFFSET -5.62556 0.00000 0.00000
											CHANNELS 3 Zrotation Xrotation Yrotation
											JOINT RightHandRing3
											{
												OFFSET -3.56744 0.00000 0.00000
												CHANNELS 3 Zrotation Xrotation Yrotation
												End site
												{
													OFFSET 0.00000 0.00000 0.00000
												}
											}
										}
									}
									JOINT RightHandPinky1
									{
										OFFSET -11.11390 0.00000 -6.03719
										CHANNELS 3 Zrotation Xrotation Yrotation
										JOINT RightHandPinky2
										{
											OFFSET -4.52789 0.00000 0.00000
											CHANNELS 3 Zrotation Xrotation Yrotation
											JOINT RightHandPinky3
											{
												OFFSET -2.46976 0.00000 0.00000
												CHANNELS 3 Zrotation Xrotation Yrotation
												End site
												{
													OFFSET 0.00000 0.00000 0.00000
												}
											}
										}
									}
								}
							}
						}
					}
					JOINT LeftShoulder
					{
						OFFSET 0.01000 7.91373 5.19711
						CHANNELS 3 Zrotation Xrotation Yrotation
						JOINT LeftArm
						{
							OFFSET 18.41580 0.00000 0.00000
							CHANNELS 3 Zrotation Xrotation Yrotation
							JOINT LeftForeArm
							{
								OFFSET 29.11090 0.00000 0.00000
								CHANNELS 3 Zrotation Xrotation Yrotation
								JOINT LeftHand
								{
									OFFSET 24.65040 0.00000 0.00000
									CHANNELS 3 Zrotation Xrotation Yrotation
									JOINT LeftHandThumb1
									{
										OFFSET 5.35114 -0.85590 3.97906
										CHANNELS 3 Zrotation Xrotation Yrotation
										JOINT LeftHandThumb2
										{
											OFFSET 4.52789 0.00000 0.00000
											CHANNELS 3 Zrotation Xrotation Yrotation
											JOINT LeftHandThumb3
											{
												OFFSET 2.46977 0.00000 0.00000
												CHANNELS 3 Zrotation Xrotation Yrotation
												End site
												{
													OFFSET 0.00000 0.00000 0.00000
												}
											}
										}
									}
									JOINT LeftHandIndex1
									{
										OFFSET 14.26970 0.00000 2.88139
										CHANNELS 3 Zrotation Xrotation Yrotation
										JOINT LeftHandIndex2
										{
											OFFSET 5.48836 0.00000 0.00000
											CHANNELS 3 Zrotation Xrotation Yrotation
											JOINT LeftHandIndex3
											{
												OFFSET 3.01859 0.00000 0.00000
												CHANNELS 3 Zrotation Xrotation Yrotation
												End site
												{
													OFFSET 0.00000 0.00000 0.00000
												}
											}
										}
									}
									JOINT LeftHandMiddle1
									{
										OFFSET 14.26970 0.00000 -0.09147
										CHANNELS 3 Zrotation Xrotation Yrotation
										JOINT LeftHandMiddle2
										{
											OFFSET 6.17440 0.00000 0.00000
											CHANNELS 3 Zrotation Xrotation Yrotation
											JOINT LeftHandMiddle3
											{
												OFFSET 3.56744 0.00000 0.00000
												CHANNELS 3 Zrotation Xrotation Yrotation
												End site
												{
													OFFSET 0.00000 0.00000 0.00000
												}
											}
										}
									}
									JOINT LeftHandRing1
									{
										OFFSET 12.69180 0.00000 -3.06433
										CHANNELS 3 Zrotation Xrotation Yrotation
										JOINT LeftHandRing2
										{
											OFFSET 5.62556 0.00000 0.00000
											CHANNELS 3 Zrotation Xrotation Yrotation
											JOINT LeftHandRing3
											{
												OFFSET 3.56744 0.00000 0.00000
												CHANNELS 3 Zrotation Xrotation Yrotation
												End site
												{
													OFFSET 0.00000 0.00000 0.00000
												}
											}
										}
									}
									JOINT LeftHandPinky1
									{
										OFFSET 11.11390 0.00000 -6.03719
										CHANNELS 3 Zrotation Xrotation Yrotation
										JOINT LeftHandPinky2
										{
											OFFSET 4.52789 0.00000 0.00000
											CHANNELS 3 Zrotation Xrotation Yrotation
											JOINT LeftHandPinky3
											{
												OFFSET 2.46976 0.00000 0.00000
												CHANNELS 3 Zrotation Xrotation Yrotation
												End site
												{
													OFFSET 0.00000 0.00000 0.00000
												}
											}
										}
									}
								}
							}
						}
					}
					JOINT pCube4
					{
						OFFSET 0.00000 10.91090 1.10792
						CHANNELS 3 Zrotation Xrotation Yrotation
						End site
						{
							OFFSET 0.00000 0.00000 0.00000
						}
					}
				}
			}
		}
	}
	JOINT RightUpLeg
	{
		OFFSET -9.98441 0.00000 0.00000
		CHANNELS 3 Zrotation Xrotation Yrotation
		JOINT RightLeg
		{
			OFFSET 0.00000 -42.11790 0.00000
			CHANNELS 3 Zrotation Xrotation Yrotation
			JOINT RightFoot
			{
				OFFSET 0.00000 -45.00020 -0.00001
				CHANNELS 3 Zrotation Xrotation Yrotation
				JOINT RightForeFoot
				{
					OFFSET 0.00000 -3.74820 0.00000
					CHANNELS 3 Zrotation Xrotation Yrotation
					JOINT RightToeBase
					{
						OFFSET 0.00000 0.06325 14.43120
						CHANNELS 3 Zrotation Xrotation Yrotation
						End site
						{
							OFFSET 0.00000 0.00000 0.00000
						}
					}
				}
			}
		}
	}
	JOINT LeftUpLeg
	{
		OFFSET 9.98441 0.00000 0.00000
		CHANNELS 3 Zrotation Xrotation Yrotation
		JOINT LeftLeg
		{
			OFFSET 0.00000 -42.11800 0.00000
			CHANNELS 3 Zrotation Xrotation Yrotation
			JOINT LeftFoot
			{
				OFFSET 0.00000 -45.00070 0.00000
				CHANNELS 3 Zrotation Xrotation Yrotation
				JOINT LeftForeFoot
				{
					OFFSET 0.00000 -3.74824 0.00000
					CHANNELS 3 Zrotation Xrotation Yrotation
					JOINT LeftToeBase
					{
						OFFSET 0.00000 0.06325 14.43110
						CHANNELS 3 Zrotation Xrotation Yrotation
						End site
						{
							OFFSET 0.00000 0.00000 0.00000
						}
					}
				}
			}
		}
	}
}
MOTION
Frames: 4
Frame Time: 0.050000
0.016844749562808414 -0.03693644367336842 -0.04663820127170351 0.02827405979038594 -0.02476617383218985 -0.04770285969912732 -3.922740214081526 -0.2724827313175804 -0.6796234824618247 -0.9324615653941586 3.5553664634179776 0.3722935681976804 -1.4308068897291517 -2.323820278438754 -0.8957314651274293 -0.47960455332999635 -0.007460192578059084 -0.7833816410156719 0.41208107438882513 12.80560588049721 0.1498134860377843 0.10139483839302563 -0.011995370372897995 -1.1734634127548724 0.14596934892070895 -14.895230775531092 -0.05936870515488901 -6.925992410513948 2.506173843125439 -13.77985459443674 68.47765519414014 0.11433737784354558 23.224940372839566 41.96934124845798 10.9723098175637 92.22981530206515 23.43061624955246 -0.35916759563247136 -5.432645645584395 4.48578699028611 -0.12253850270099063 -1.6088923532025932 0.018344440476900516 0.03103506305234935 -56.241289398015034 -0.028364599090105847 -0.027132197242242154 -56.244220374581495 -38.731018645845126 0.04097736556101433 0.0227773986427778 0.010059739135031054 0.004591930734968273 0.02324605778978812 0.047232310724122074 0.017984629634966158 -0.03883111217301465 -36.73317805759995 -0.028652356124806128 0.01099196386586102 0.027674619284233197 0.032172040143113236 0.04409158635815699 -0.04318060162571539 -0.03264680789086458 -0.03499636502658686 -19.73334435977547 0.04595018781177544 0.009550760705375689 0.011060905427339842 0.003213568742816768 -0.023501440501432436 0.017169708471077093 0.018619622894709243 -0.005917465960125722 24.06371916316538 -0.011601150862561417 0.03196704873528083 28.883369801897846 -0.00610246523283806 0.01856241400900682 28.862803492999628 -0.007836055844609146 -0.004605525024950708 5.053082631881081 1.3248303091651343 11.569894004353666 -67.8836396123273 28.394770874536334 -7.155348548421272 -2.7280306702676564 -2.6814801416853165 -49.042983466651314 -15.823723182314824 3.199317178596503 0.9233997344273296 -0.4591786297937415 0.10955303237209219 -8.12642999526742 0.005609425221994799 -0.026206060746562315 44.53493714562462 -0.012017802499349493 -0.014683763283520312 44.55762947109363 12.508301987232526 0.020239599939907753 0.024409333726553423 -0.01853196824840581 -0.04089969020122152 0.0040621606924855684 -0.0015856551905920407 -0.02328325147358911 -0.0024981495838636977 11.145376694957896 -0.024263250862069676 0.0189383068252528 -0.04298132887216332 -0.002598788935845598 -0.04857055500889234 -0.023312937213426872 0.022090613308469995 0.0018599752386148083 4.724726302440178 0.02412074441830038 -0.026570050471341967 -0.00927302803705808 0.040670762010985045 -0.02007995199755925 0.011255375703621937 0.049727589107183674 0.04402393177527379 -5.572578371305145 -0.037025262455008104 0.047189219183297215 -6.717534473743927 -0.03420207497062831 -0.015336968962447526 -6.679766192397618 -0.00522993737081199 -0.0037220828290327013 -0.007505094232947988 0.01738934000572996 -0.04340947931540627 8.048750626052868 3.5156094375139864 -19.210819514252172 0.02982149465306747 10.426875969481141 0.023645256540728667 -5.619381868365518 -15.667282156514009 3.2183864595376432 0.004930934547060712 0.03643394447495571 -0.030697259781174664 0.00946429122326059 4.678402775987306 0.03482654245181337 12.501616849375992 -8.267707799586622 6.920568091938945 -0.012202665928797362 46.40369349729985 0.043310964265966694 -4.297578349023937 -14.782034093219517 -3.831001703278449 -0.04626834294009634 0.026536071773465814 -0.021612265223540268 -0.009814966362650555 -10.741749407874195 -0.02712356776904818 
-0.015444294581671637 0.0243507098880881 -0.03546587916979246 0.022152289473863718 0.01541071355732272 -0.003276551255254115 -3.9304792022844834 -0.38264898457108043 -0.6454378896191423 -0.9049479568858098 3.516506113161287 0.41697581955204904 -1.390109786163699 -2.296195335340455 -0.8628794382271329 -0.4635515026583844 0.06666545734413173 -0.8113977453187661 0.49510962095470135 12.726162780768425 0.14035704042617003 0.15519964697323835 0.017241052304206694 -1.4293426860499385 0.18551579530157375 -14.828100579596375 -0.05988350118808006 -6.8618070188357905 2.471557507238934 -13.961755618366727 68.07718824468573 -0.5801238185803513 22.35498487917431 43.029951551656325 11.033811716612757 91.68396344303768 23.005191073081676 -0.3877913571811889 -5.463230010733709 4.521813036250081 -0.1565062684469537 -1.6098616597788216 -0.03014987838325744 0.027577359611022284 -56.26205060177088 0.023454390015866473 0.008898784272519136 -56.24956470545677 -38.78956443433504 0.02225381755072642 -0.04962117487542314 -0.043398039713754326 -0.0008685621406322348 -0.045994707111995124 0.009493679423486986 -0.005223262408445921 0.04712608251166772 -36.671650882223425 -0.003592234660018213 -0.005392578886217238 0.04136512317764281 0.01809295400491191 -0.017259053578947546 -0.029995095920341545 -0.028500159252653957 -0.028842494078417078 -19.729166883053054 -0.04162651847764753 0.023597480776294078 -0.02168401326638511 0.029852429566183985 -0.007878925626785795 0.03845081657174843 -0.013242603339482628 -0.04266786754380263 24.08565362315002 0.00030727673077597374 -0.008237718168299038 28.821634868361265 0.01669787133146383 -0.04600941895543321 28.87378363936036 0.048299851117638515 -0.03679014075122069 4.682061503691855 1.2352115095983827 11.64548144162274 -68.80274302896638 28.37451999211841 -5.6665548316580825 -2.9493541052076013 -2.769263788331975 -46.65364679680552 -15.50610059717027 3.94204782693466 0.3272918880209712 -0.46048200147830737 0.09161985159714067 -8.119115412607913 0.03191970444007283 0.030115043641644232 44.53878362119123 0.0020401898022837667 -0.03749480922283566 44.604423115639364 12.494655310329005 0.028137222322722442 0.044833370197471197 0.049119233819384475 -0.03714843299454948 0.04059676510461894 -0.03294922963396935 -0.025781248403602165 -0.008677247471618205 11.086154027787684 -0.038565485645563655 -0.013275236979450386 0.027602541213684263 -0.01371187927529467 0.03425997799455909 -0.009006643174063592 -0.020947859582605394 -0.046206788354961524 4.722611324712023 -0.03606627190343361 0.01012230753673954 0.03389439292025785 0.01253872276410603 -0.011347500069684638 0.01500475941617002 -0.03984341533853364 -0.02909041677733576 -5.624275187657089 -0.001348567001322951 0.027422784338512647 -6.7557289867669645 -0.002998218444776312 -0.01803735384140345 -6.6729990589369 0.026058271455760455 0.03344394715077819 -0.00480493289362428 0.02170924320177048 -0.034878381414667134 8.01502383884956 3.4709291577892065 -19.214743334478396 0.014077933868528942 10.412635138966365 0.06287348751032228 -5.610893252921479 -15.702912973660435 3.2178603550858185 -0.03424054595961344 0.009543336972513992 0.001524079395221914 0.014256396783068916 4.718316252949775 -0.030365102397648034 12.483085010199376 -8.282212342898744 6.886121889328619 0.0017095197794201624 46.39444443900473 0.0016259567905039657 -4.365741667790164 -14.74266280201405 -3.8416371600768806 0.048353564459090205 0.04824206329030689 0.04513621393169441 -0.008695909217189442 -10.768457042648274 -0.01692193223346494 
-0.03306921976878174 -0.015073563957469956 0.01472431014452151 0.047119294747039145 0.04436346922687572 -0.03641162054760329 -3.8833329758447674 -0.5712470303234969 -0.604931306853856 -0.8959662165974288 3.5216433818999744 0.37161072165482845 -1.4579951101952593 -2.3047712181543463 -0.8566431115785424 -0.4167176658446039 0.025762793688879994 -0.7768269980107897 0.5156757793367513 12.734678019637096 -0.036754583065515364 0.1898376345686843 0.009135183131379588 -1.562789636893119 0.2201505123242946 -14.735569983124693 -0.10406155886921294 -6.83516721166637 2.4900530668109946 -14.130758968614929 67.5829576600023 -1.33397409510478 21.38809718348677 43.456992957507765 11.168665111555407 91.05227725765623 22.618234608883213 -0.3880409136450608 -5.448009614056473 4.553602091451784 -0.16668065008235466 -1.5683682657454765 -0.0425149863560862 -0.0440090615798732 -56.225933027266066 0.048157561534432174 0.028233364664358714 -56.217716155360065 -38.81471315143506 0.005311931461207588 -0.008290137344922743 0.0017779690436037997 -0.01453055762227524 0.0037699979126924153 -0.024089352778466404 -0.03837683508512429 0.03604231528061674 -36.683827359474705 -0.039115135019451734 0.034270148721708055 0.012275908814982948 0.025377445443873586 0.04116969981930227 -0.015213196428737148 -0.0006553509725160468 -0.016277886140882877 -19.759423147019426 -0.004442254420822816 0.010439489189871934 0.03553856688096555 0.003015584514817961 0.03329276875977208 0.04109555771659202 -0.017459089548577205 -0.044660144063346285 24.069422070821112 -0.0414123272521331 -0.04197563924879943 28.907234762736394 0.03197854828920912 -0.021665870971315705 28.84002379585371 0.025519296663160575 0.0227900825931102 4.48793042174124 1.199032634451322 11.702338902336514 -69.16972450746029 28.50575512190058 -4.552205205948052 -3.070705549054007 -2.8514925422852744 -45.0042836668896 -15.302542248514 4.3237210563142225 0.06121542232915837 -0.466283355485209 0.062156400126072445 -8.10566961002392 -0.01038332859329275 0.006517284866887521 44.51837466832705 0.003776140364475903 -0.010864426954815964 44.53903199160387 12.484313956619966 0.020626946923363636 -0.042240996788561525 0.011145797486533477 -0.04059025800934886 0.010627221895344187 -0.011978107308672782 0.0008132772325056188 -0.024519919653412225 11.154229198366592 -0.040967963814316895 0.006047940172108059 -0.032087557361125264 0.0012953644876585399 -0.032498418175854464 -0.02856100109063879 -0.016441459852668042 0.01201294782945287 4.744797320847996 0.007702432000074396 -0.026391767536745433 -0.012084977803516089 0.04390603858375738 0.021374576511199093 0.04190044917675933 0.01671428938952025 0.009744000161599651 -5.580343654435878 -0.005731581814249615 -0.0069252982660779365 -6.702496185205434 0.023632275782322843 -0.022643049535290616 -6.751725788248081 -0.03279368650346616 0.049490995137669955 0.012245580783813447 0.011166361864964256 0.015512468856762059 8.041615581864697 3.4955104536041124 -19.182746941731597 0.005960613782941524 10.4155967805915 0.01104099702380668 -5.648539587395628 -15.679944991246902 3.1989433872043787 0.009440409007004815 0.04503934751951408 0.005933603478122358 0.035228591251182925 4.650231241273562 -0.042482948593213825 12.476990026504657 -8.250227012090397 6.929777892280627 -0.03427638933024598 46.34591926326734 -0.040717686139245604 -4.297381317293306 -14.769197641359137 -3.8704813483376563 0.047898372435910865 0.019744535828054383 0.01113087917001575 0.031939972678050495 -10.711141535649402 0.00788751621796891 
-0.00350288185783907 -0.0024780840247367285 0.017746698919723355 -0.01649623726754693 -0.02240097974782923 0.04273805014907086 -3.8228214029632297 -0.6675141939127669 -0.6624920564653234 -0.9794912512943289 3.5353858308677966 0.3407146898576463 -1.4064600263250386 -2.34477346936746 -0.8630051026419 -0.3517229673213493 0.015831584641114515 -0.8054930188181209 0.6101055664553279 12.760766515973403 -0.04776551787364229 0.20836315003698885 0.1360339112711048 -1.6754354347270037 0.25762551254427607 -14.59268327539462 -0.1610271815163725 -6.746585890571382 2.44716633638079 -14.210898998438132 67.02904759434955 -1.929616757385523 20.67145702761937 42.758164903244875 10.98508144125327 90.32952352100426 22.250607657244398 -0.4124054131414111 -5.439882015643462 4.549234260136291 -0.13745156779755252 -1.6358386788880184 0.03994770565094294 -0.01715153057145746 -56.24389454416118 0.03640762722521441 0.0445880335307813 -56.213526682176024 -38.752274677837434 0.010297285146139526 0.032787771755358124 -0.01100895336644337 -0.0018273496209773202 0.007033523329791029 -0.046820952224121686 0.03118391069323398 0.022876602512337203 -36.69760404873786 -0.013748781196163837 -0.04398921227085117 -0.0002647187048272579 0.01980703888959283 -0.02845555750480537 0.014762008818684972 -0.02921867369447346 -0.034085870704127365 -19.74830878421577 0.022003957419818584 -0.042591934916030326 -0.002651968067554503 0.045771370981565015 -0.02802606653070017 -0.046021639744035385 -0.03797029623330683 -0.025578018911339435 24.00937388618762 0.016712176576271214 0.036702619966150506 28.88804449972395 -0.027081471073675586 0.007587386567507187 28.880269814363785 0.04047671839175211 -0.007088562769699993 4.336661978063934 1.1928462705057443 11.813480380037037 -69.1594483179271 28.22073574593637 -4.11489406859355 -3.303443148121031 -3.0700158143435337 -44.28243073222752 -14.962732770398395 4.429412658096718 -0.07969061013754036 -0.5195674307026757 0.029761980665365388 -8.117233297926353 -0.03856781813838527 0.023878268397528043 44.57234922952676 0.012893492920845054 -0.042187328120335134 44.56413102853009 12.41468429754338 0.004160733151252553 -0.034937437975881974 0.009672719282052347 -0.0013448024706620737 0.013183024872657628 0.03425731369466724 -0.017214027341265384 -0.005511892077873477 11.068551607728487 0.005819446187444342 0.023177122678645006 0.03207407629301285 -0.007310387233346063 0.04134861654771208 0.016323654087651015 -0.038703676709790046 -0.03370594713842653 4.751402411264166 -0.02679337616927867 -0.0346752976361712 0.002585834034886763 -0.03962234097028036 -0.028377075398133726 0.04187494903733347 -0.011435000718562375 0.03914792952880304 -5.572797813757446 0.007358171820058983 0.04297579113738981 -6.698940855882026 -0.018980731596037637 0.013530734813874106 -6.767868021506053 0.01825922660250319 0.02743703832230324 -0.0115302347108021 0.02534538630269901 0.015881955431898402 8.027849850087954 3.4550193769935937 -19.246798792057586 0.024712361045692483 10.357283978205704 0.013906122830853984 -5.615611909278495 -15.691919512773685 3.2124603383422174 -0.007207865972825199 0.03151803096311532 -0.015254130711909612 -0.008426114593182179 4.734086818112416 -0.01657208794166612 12.449535192450968 -8.218946551227553 6.849103312242939 -0.01381017948283647 46.395225941699266 -0.007134167649110101 -4.328237596446864 -14.782011931724817 -3.8195077008990648 0.016507533750665798 -0.02423203256762403 -0.020890640022106746 -0.029987288112832466 -10.755728132527912 0.013530080357946889 
